# xmcd
#
# Track frame offsets:
#   150
#   16727
#   32069
#   46621
#   61257
#   75715
#   91992
#   107299
#   122904
#   139198
#   155373
#   169072
#   184264
#   199884
#   216666
#
# Disc length: 3080 seconds
#
# Revision: 0
# Processed by: cddbd v1.5.2PL0 Copyright (c) Steve Scherf et al.
# Submitted via: uFREEDB ActiveX Control 1.5
#
DISCID=c50c060f
DTITLE=Banda Calypso - Amor sem fim
DYEAR=1900
DGENRE=Blues
TTITLE0=xonou xonou
TTITLE1=nossa historia acabou
TTITLE2=vida minha 
TTITLE3=ardendo de amor
TTITLE4=fazer o que
TTITLE5=chama querreira 
TTITLE6=domingo a domingo
TTITLE7=amor sem fim 
TTITLE8=minha estrada
TTITLE9=me sinto so 
TTITLE10=menina do interior 
TTITLE11=amor com amor se paga
TTITLE12=cha de maracuja
TTITLE13=falso amor
TTITLE14=sem direção
EXTD=
EXTT0=
EXTT1=
EXTT2=
EXTT3=
EXTT4=
EXTT5=
EXTT6=
EXTT7=
EXTT8=
EXTT9=
EXTT10=
EXTT11=
EXTT12=
EXTT13=
EXTT14=
PLAYORDER=
